Coordinates
version=1
nRows=17
nColumns=36
inDegrees=yes

Units are S.I. units (second, meters, Newtons, ...)
If the header above contains a line with 'inDegrees', this indicates whether rotational values are in degrees (yes) or radians (no).

endheader
time	pelvis_tilt	pelvis_list	pelvis_rotation	pelvis_tx	pelvis_ty	pelvis_tz	hip_flexion_r	hip_adduction_r	hip_rotation_r	knee_angle_r	knee_angle_r_beta	ankle_angle_r	subtalar_angle_r	mtp_angle_r	hip_flexion_l	hip_adduction_l	hip_rotation_l	knee_angle_l	knee_angle_l_beta	ankle_angle_l	subtalar_angle_l	mtp_angle_l	lumbar_extension	lumbar_bending	lumbar_rotation	arm_flex_r	arm_add_r	arm_rot_r	elbow_flex_r	pro_sup_r	arm_flex_l	arm_add_l	arm_rot_l	elbow_flex_l	pro_sup_l
      3.49000000	    -11.63293112	      0.84540779	     -0.66890507	     -0.53863464	      0.57066083	     -0.61824865	     99.64024169	     -6.99821439	      6.47633960	     96.26728578	      1.68018110	     17.95824113	      1.68993626	     -7.49999980	     99.73621427	     -9.97858114	      0.77591646	     95.78937065	      1.67183991	     14.73433213	     -4.28268795	     -7.49999980	    -26.21266281	      1.62762173	     -1.86398097	     17.50493311	    -10.76259325	     -4.99318787	    122.79150193	    103.34623766	     19.70591382	     -6.88856628	     -6.45110751	    122.14297278	     99.75715015
      3.50000000	    -12.71178911	      1.04412182	     -0.55035805	     -0.53126853	      0.57221980	     -0.61781239	    100.19939678	     -7.53931955	      6.39386126	     96.50580272	      1.68434400	     19.15994622	      3.29771808	     -7.49999980	    100.09929623	    -10.28935264	      0.42725729	     95.92320683	      1.67417579	     16.15267823	     -2.56657510	     -7.49999980	    -25.81193713	      1.32291146	     -2.25454414	     18.00849766	    -10.90931380	     -4.50646068	    122.72929955	    103.51070439	     20.14665472	     -7.25692682	     -6.84975099	    122.53598584	     99.99277297
      3.51000000	    -13.97262132	      1.18709249	     -0.51619089	     -0.52396729	      0.57329735	     -0.61711830	    100.92341769	     -7.91786854	      6.17452464	     96.65187780	      1.68689350	     19.70878892	      3.42706164	     -7.49999980	    100.71387768	    -10.61264513	      0.13556743	     95.99687958	      1.67546162	     16.51070068	     -2.38864866	     -7.49999980	    -25.11244117	      0.94518690	     -2.29422406	     18.11925828	    -11.19237669	     -4.29051500	    122.95007702	    103.57872732	     20.62974290	     -7.47434715	     -6.91967997	    122.79211121	    100.07509584
      3.52000000	    -15.19621862	      1.30338183	     -0.60156151	     -0.51671671	      0.57435209	     -0.61592249	    101.56867553	     -8.12567163	      5.94974597	     96.79682717	      1.68942334	     20.75800247	      4.41033123	     -7.49999980	    101.28924227	    -11.06117447	     -0.03751833	     96.10024830	      1.67726574	     17.28868803	     -1.55169555	     -7.49999980	    -24.38126658	      0.48160450	     -2.15552110	     18.15658221	    -11.37314638	     -4.22166947	    123.11289819	    103.76529081	     21.07930927	     -7.69713252	     -6.96648932	    122.96278951	    100.32238082
      3.53000000	    -16.32630399	      1.49548294	     -0.86103750	     -0.50935945	      0.57576241	     -0.61454791	    102.10904135	     -8.10660229	      5.75899722	     96.90118087	      1.69124466	     21.37924391	      4.50857812	     -7.49999980	    101.75770454	    -11.69889975	     -0.34627483	     96.24241194	      1.67974697	     17.64188775	     -1.45443622	     -7.49999980	    -23.72287411	     -0.10217545	     -1.91098049	     18.13416843	    -11.49763383	     -4.09031821	    123.29534298	    103.82448310	     21.34853592	     -7.88014944	     -7.09095673	    123.25098032	    100.40234942
      3.54000000	    -17.11734675	      1.98027730	     -0.99597708	     -0.50171743	      0.57802871	     -0.61388259	    102.36847325	     -8.30134815	      5.96834214	     97.12913117	      1.69522314	     22.60307170	      5.56221931	     -7.49999981	    101.70750029	    -12.09715877	     -0.91934347	     96.41685980	      1.68279166	     18.46967808	     -0.74972278	     -7.49999981	    -23.37203133	     -0.89187758	     -1.88192358	     18.09390367	    -11.48739080	     -4.12564197	    123.47261096	    103.96659755	     21.55393936	     -8.10292276	     -7.08672271	    123.49506458	    100.62858099
      3.55000000	    -17.69958499	      2.08528646	     -1.03309531	     -0.49448934	      0.58117860	     -0.61358718	    102.21690397	     -8.54245592	      5.80646739	     97.16992279	      1.69593509	     22.70643321	      5.55981147	     -7.49999981	    101.47593606	    -12.12218594	     -0.94837502	     96.45466018	      1.68345140	     18.52528252	     -0.75367282	     -7.49999981	    -23.23826893	     -1.18700647	     -1.80949316	     18.21917202	    -11.51772291	     -4.11221499	    123.53268937	    103.97593736	     21.66766093	     -8.14612016	     -7.12656986	    123.56255713	    100.63982116
      3.56000000	    -18.57986079	      2.67531896	     -0.58813040	     -0.48787239	      0.58409563	     -0.61380998	    102.50952836	     -9.09993259	      6.42932495	     97.26587163	      1.69760971	     24.44195509	      6.67358149	     -7.49999981	    101.10199880	    -11.43916882	     -1.52442826	     96.00177281	      1.67554702	     19.82468912	     -0.75215069	     -7.49999981	    -22.82999516	     -1.91724646	     -2.31432829	     18.05129717	    -11.43960450	     -4.08256074	    123.76948102	    104.13741527	     21.81088926	     -8.30368964	     -7.06502622	    124.01586665	    100.94575504
      3.57000000	    -19.26088689	      2.66307742	     -0.41907816	     -0.48124414	      0.58756739	     -0.61331933	    102.30295265	     -9.29697305	      6.27763669	     97.15554675	      1.69568418	     24.80534985	      6.64677121	     -7.49999981	    100.80457945	    -11.07282531	     -1.37583516	     95.65102563	      1.66942533	     20.18624143	     -0.90127768	     -7.49999981	    -22.48133307	     -2.02237176	     -2.25854684	     17.92732140	    -11.35267575	     -4.00581573	    123.88048828	    104.16539259	     21.75113950	     -8.23587486	     -7.09061136	    124.16326483	    100.99347846
      3.58000000	    -19.72798675	      2.69302330	     -0.41527720	     -0.47398924	      0.59117087	     -0.61269058	    101.89970974	     -9.30076544	      6.22544379	     97.14590823	      1.69551595	     25.29275554	      6.66320141	     -7.49999981	    100.40052308	    -10.88881040	     -1.20569331	     95.60252690	      1.66857887	     20.62862048	     -1.10410389	     -7.49999981	    -22.14056032	     -2.19720148	     -2.10902181	     17.65041573	    -11.15073708	     -3.95810503	    123.97089885	    104.19239278	     21.34579006	     -8.11472241	     -7.12887735	    124.31537885	    101.04574645
      3.59000000	    -20.03405358	      2.71054178	     -0.51159508	     -0.46663058	      0.59511731	     -0.61209971	    101.27088460	     -9.22814559	      6.19370088	     97.13373721	      1.69530353	     26.93948482	      7.65561121	     -7.49999981	     99.82853790	    -10.80664369	     -1.05405556	     95.62972458	      1.66905356	     21.75562280	     -1.09935973	     -7.49999981	    -21.90603401	     -2.36138176	     -1.99597833	     17.53548919	    -10.81663629	     -3.95424590	    123.99720608	    104.38264994	     20.80371088	     -8.00796474	     -7.45692553	    124.69402996	    101.43525780
      3.60000000	    -20.35286441	      2.72280030	     -0.55910253	     -0.45953297	      0.59937135	     -0.61170976	    100.65405205	     -9.10593307	      6.23392023	     97.01231443	      1.69318430	     27.09257578	      7.59482089	     -7.49999981	     99.21476397	    -10.55446579	     -0.83233516	     95.48381199	      1.66650690	     21.90151237	     -1.18902238	     -7.49999981	    -21.51712814	     -2.48894453	     -1.77615442	     17.18907905	    -10.58107628	     -3.86564192	    124.00041487	    104.39695401	     20.19765539	     -7.83377957	     -7.41869609	    124.76856635	    101.46781447
      3.61000000	    -20.70804750	      2.57059724	     -0.69959553	     -0.45248971	      0.60405387	     -0.61129676	     99.85028846	     -8.83373617	      6.05464991	     96.66120260	      1.68705624	     28.02872846	      7.31935107	     -7.49999981	     98.57917492	    -10.38685833	     -0.51718094	     95.24047287	      1.66225983	     22.84433387	     -1.69010400	     -7.49999981	    -20.99673601	     -2.42663755	     -1.52824681	     16.78901413	    -10.25278325	     -3.89864336	    123.92920852	    104.43922841	     19.31397251	     -7.53640159	     -7.57859647	    125.02553259	    101.59461930
      3.62000000	    -20.99207578	      2.52655379	     -0.76646259	     -0.44534747	      0.60920751	     -0.61107087	     99.03277089	     -8.65679429	      6.04933895	     96.33120334	      1.68129667	     28.18890990	      7.31640622	     -7.49999981	     97.82128428	    -10.13896339	     -0.30233796	     94.93293748	      1.65689233	     23.08169128	     -1.79717939	     -7.49999981	    -20.41565285	     -2.46746981	     -1.31618196	     16.19709570	    -10.01249751	     -3.78495629	    123.86751518	    104.45936708	     18.34037535	     -7.33922924	     -7.51564873	    125.06583726	    101.64032967
      3.63000000	    -21.42787291	      2.37144236	     -0.87148887	     -0.43824933	      0.61460553	     -0.61077165	     98.21843737	     -8.37645957	      5.94519201	     95.78308006	      1.67173011	     28.74470605	      7.20439832	     -7.49999981	     97.14355773	     -9.94063683	      0.03616709	     94.51986932	      1.64968293	     23.89321114	     -2.22218336	     -7.49999981	    -19.54303388	     -2.39837016	     -1.12772902	     15.60828722	     -9.64745202	     -3.75372669	    123.60047292	    104.49382784	     17.18340843	     -7.23788762	     -7.45566185	    125.14298973	    101.74845647
      3.64000000	    -21.82459683	      2.33160173	     -0.91354050	     -0.43118177	      0.62057681	     -0.61057371	     97.32758702	     -8.18740931	      5.89666644	     95.14350964	      1.66056751	     29.08944994	      7.03351629	     -7.49999981	     96.32967911	     -9.66840560	      0.22143080	     93.96491137	      1.63999708	     24.35099794	     -2.47693266	     -7.49999981	    -18.64566464	     -2.42249545	     -0.97843890	     14.89751935	     -9.29158835	     -3.65641389	    123.35237858	    104.52664043	     16.00293527	     -7.09309140	     -7.38106009	    125.12328308	    101.84377320
      3.65000000	    -22.12246770	      2.34952506	     -0.94674203	     -0.42409568	      0.62710461	     -0.61039043	     96.34444732	     -8.03735381	      5.88524137	     94.48160905	      1.64901516	     29.13899841	      6.98855550	     -7.49999981	     95.34081433	     -9.39966378	      0.33870614	     93.32135476	      1.62876490	     24.45408804	     -2.53206503	     -7.49999981	    -17.81550912	     -2.50227040	     -0.80875158	     14.01881280	     -9.02210023	     -3.50390610	    123.28828825	    104.53877708	     14.82704984	     -6.84932194	     -7.25499119	    125.09749820	    101.86974968
